<?xml version="1.0" encoding="utf-8"?>
<!-- Generator: Adobe Illustrator 19.2.1, SVG Export Plug-In . SVG Version: 6.00 Build 0)  -->
<svg version="1.1" id="layer" xmlns="http://www.w3.org/2000/svg" xmlns:xlink="http://www.w3.org/1999/xlink" x="0px" y="0px"
	 viewBox="0 0 652 652" style="enable-background:new 0 0 652 652;" xml:space="preserve">
<style type="text/css">
	.st0{fill:#FFFFFF;stroke:#00401C;stroke-width:4.477;stroke-miterlimit:2.6131;}
	.st1{fill:#FBC90B;}
	.st2{fill:#D89C7E;}
	.st3{fill:#C5764E;}
	.st4{fill:#A33902;}
	.st5{fill:#00401C;}
	.st6{fill:#FFFFFF;}
</style>
<path class="st0" d="M406.4,259.6c123.1,13.2,213.4,53.3,213.4,100.7c0,57.9-134.7,105.3-300,105.3s-300-47.1-300-105.3
	c0-47.4,90.3-87.9,214-100.7C290.4,253.7,348,253.4,406.4,259.6z"/>
<path class="st1" d="M209,272.1c-3.4-4-8.6-9.5-11.6-13.2c17.8-5.2,36.1-10.1,54.8-15.3c0.3-0.3,0.6-0.6,0.9-0.9
	c0.6-4.3,1.2-8.6,1.8-13.2c0.6-4.6,1.2-9.2,2.1-13.8c0.6-4.6,1.5-9.2,2.4-13.8c0.9-4.6,2.1-9.2,3.1-13.8c9.5,5.2,19,10.4,28.2,15.6
	c8,4.6,15.6,9.2,23.3,13.8c1.5,0,3.1,0,4.6,0c1.2,0,2.4,0,3.4,0c8-4.3,16.2-8.9,24.5-13.5c9.8-5.5,19.9-11,30-16.5
	c1.2,4.9,2.1,9.5,2.8,14.4c0.6,4.9,1.5,9.5,1.8,14.4c0.6,4.9,0.9,9.5,1.5,14.4c0.3,4.3,0.6,8.6,0.9,12.6c0.6,0.6,1.2,1.5,1.8,2.1
	c19.3,4.6,38.3,9.2,56.6,14.1c-3.7,3.7-9.5,9.5-13.8,14.1l-18.1-3.4l-66.7-4.6l-49.9-0.3l-51.7,2.1L209,272.1z"/>
<path class="st2" d="M318.3,218.2c20.2,0,38.9,5.5,53.3,15c7,4.6,12.9,10.7,17.1,17.4c3.7,5.5,6.4,11.6,8.6,18.4l-53.6-3.7h-50.2
	l-51.7,2.1l-3.7,0.6c2.4-6.4,5.2-12.2,9.2-17.4c4.6-6.4,10.7-12.2,17.8-17.1C279.4,223.7,297.8,218.2,318.3,218.2z"/>
<path class="st3" d="M328.7,239.4c8.9,1.5,16.8,4.3,23.6,8.9c1.8,1.2,3.4,2.1,4.9,3.7c9.8-6.4,19.9-12.9,30.3-19.3
	c11-6.7,22-13.5,33.4-20.2c-4.6,4.9-8.9,9.8-13.5,14.7c-4.3,4.9-8.9,9.5-12.9,14.4c-4.3,4.9-8.3,9.5-12.2,14.4
	c-3.4,4-6.7,8.3-9.8,12.2l-28.8-2.1l-50.2-0.6l-31.5,1.2c-2.8-4-5.5-7.7-8.6-11.6c-3.7-4.6-7.3-9.5-11-14.1
	c-4-4.6-7.7-9.5-11.9-14.1c-4-4.6-8.3-9.2-12.6-13.8c10.4,6.4,20.8,12.9,30.9,19.6c9.8,6.4,19,13.2,28.2,19.6
	c2.1-1.8,4.3-3.4,6.4-4.6c6.7-4.3,14.4-7,23-8.3c0.9-4.9,1.8-9.8,2.8-14.7c0.9-5.2,2.1-10.7,3.1-15.9c0.9-5.2,2.1-10.7,3.1-15.9
	c0.9-5.2,2.1-10.7,3.1-15.9c0.9,5.2,2.1,10.7,3.1,15.9c0.9,5.2,1.8,10.7,2.8,15.9c0.9,5.2,1.5,10.7,2.4,15.9
	C327.5,229.6,328.1,234.5,328.7,239.4z"/>
<path class="st4" d="M260.7,266.9c1.2-2.8,3.1-5.5,5.2-8c3.7-4.3,8.6-8,14.1-11.3c5.2-3.4,11.3-6.1,17.8-8
	c6.4-1.8,13.2-3.1,20.2-3.1c7,0,13.8,1.5,19.9,3.4c6.1,2.1,11.6,5.2,16.8,8.6s9.5,7.3,13.2,11.3c2.1,2.4,3.7,4.9,4.9,7.3l-28.8-2.1
	l-50.5,0.3L260.7,266.9z"/>
<path class="st5" d="M581.5,331.5c41.9,26.3,16.5,60.9-27.9,74.1c-12.9,6.1-27.2,12.2-43.2,17.8c-53.3,19.6-130.1,36.1-215.5,33.4
	c-180.3-5.8-218.6-63.4-219.2-71c1.8,5.2,48.7,23,96.1,3.7c29.7-11.9,55.7-23.6,106.5-29.4c81.4-9.2,162.9,7.7,270.9,34.6h4.6
	C566.2,398.2,622.6,368.2,581.5,331.5L581.5,331.5L581.5,331.5z"/>
<path class="st5" d="M237.8,320.8c0.9,10.7,5.5,19.3,13.8,25.4c4.3,3.1,8.9,5.2,14.1,6.4l0,0l0,0l0,0c4.9,1.2,9.8,1.5,15.6,0.9
	c8.6-0.6,16.2-3.1,22.3-7.3c2.4-1.5,4.9-3.7,6.7-5.8c7-7.3,10.1-16.5,9.2-27.6c-0.9-10.7-5.5-19.3-13.5-25.4
	c-8.3-6.1-18.4-8.6-30.3-7.3c-11.9,1.2-21.4,5.5-28.5,12.9C239.6,300.9,236.8,310.1,237.8,320.8L237.8,320.8z"/>
<path class="st6" d="M256.4,319.3c0.6,8.6,2.4,15,5.5,19.6l0.3,0.3l0,0l0,0c0.3,0.6,0.6,0.9,1.2,1.2c0.3,0.3,0.6,0.9,1.2,1.2
	c4,3.7,9.2,5.2,15.9,4.6c7.3-0.6,12.9-3.7,16.2-8.9c1.2-1.5,2.4-4.3,3.1-7.7c0.9-4.3,0.9-9.5,0.6-15.3c-0.9-9.8-2.8-16.5-7-21.1
	c-4.3-4.6-10.1-6.4-17.4-5.8c-7.3,0.6-12.9,3.7-16.2,8.9C256.4,301.8,255.5,309.5,256.4,319.3L256.4,319.3z"/>
<path class="st5" d="M514.8,375.6l3.7,0.9c0.6,0,0.9,0,1.5,0s1.2-0.3,1.5-0.3l1.2-0.6c0.3,0,0.6-0.3,0.9-0.3s0.9,0,1.2,0
	c0.3,0,2.1,1.2,5.8,3.1c3.7,2.1,7,3.4,10.4,4.3c8,1.8,15,1.5,21.1-1.2c6.1-2.4,10.1-6.7,11.6-12.9c0.9-3.4,0.9-6.4,0-9.2
	c-0.9-2.8-2.8-5.5-5.5-8.3c-2.8-2.8-8-5.8-15.3-9.8c-0.6-0.3-0.9-0.6-1.2-0.6h-0.3c-8-4-11.6-7.7-10.7-11c0.6-2.1,2.1-3.7,4.9-4.6
	c2.4-0.9,5.5-0.9,9.2-0.3c3.1,0.6,5.5,1.8,7.3,3.7c1.8,1.5,3.4,4,4.3,6.7c0,0.3,0.3,0.6,0.3,1.2c0.6,2.4,2.1,3.7,4,4l2.8,0.6
	l4.3-16.2l-2.1-0.6c-0.6,0-1.2-0.3-1.8-0.3c-0.6,0-1.2,0-1.8,0h-1.2c-0.3,0-0.3,0-0.6,0c-0.3,0-0.6,0-0.6,0c-0.3,0-1.8-0.9-4.9-2.4
	c-3.1-1.5-7-4.3-10.1-5.2c-7-1.5-13.2-2.4-18.4,0c-5.2,2.1-8.3,7.7-9.5,12.9c-1.2,4.6,0.9,9.8,3.7,13.5s8,7.7,16.2,11.9
	c0.6,0.3,1.5,0.9,2.8,1.5c9.2,4.9,13.2,8.9,12.2,12.6c-0.9,3.1-3.1,5.2-6.4,6.7c-3.4,1.2-7.7,1.5-11.9,0.6c-3.4-0.9-6.4-2.1-8.9-4
	c-2.4-1.8-4.3-4.3-6.1-7.3c-0.3-0.3-0.6-0.9-0.9-1.8c-1.2-2.4-2.8-4-4.9-4.3l-3.1-0.6L514.8,375.6L514.8,375.6z"/>
<path class="st5" d="M102.8,419.7c-22-12.2-53.6-33.1-53.9-60c-0.3-41.9,65.2-68.9,179.7-83.9c114.8-15,230.8-0.3,289.6,20.2
	c39.5,13.2,72.2,31.5,69.2,30.3c-12.6-13.2-43.8-26.3-64.6-33.7c-65.8-22.7-165.6-37.3-287.4-24.8
	c-121.8,12.2-193.8,45.9-197.8,85.7C34.8,386,59.6,399.5,102.8,419.7L102.8,419.7z"/>
<path class="st5" d="M147.1,362.1c-4.3,4.9-8.3,8.9-12.2,11.6c-4,2.8-8,4.6-12.6,5.5c-7.7,1.8-16.8,0.6-22.3-3.7s-9.2-8.9-10.4-17.4
	c-1.2-9.2,1.5-17.4,5.2-24.2c3.7-6.7,11.9-11,19-12.9c3.7-0.9,7.7-0.9,11,0s5.2,1.8,8,4.9c0.3,0.3,0.6,0.6,0.9,0.9
	c1.5,1.8,3.4,2.4,5.2,1.8c1.2-0.3,2.4-0.6,4-0.9c-0.9-6.7-2.1-13.2-3.1-19.9c-1.2,0.3-2.1,0.6-3.1,0.9c-0.6,0-1.5,0.6-3.1,1.5l0,0
	c-0.6,0.3-0.9,0.6-1.5,0.9c-0.3,0-0.3,0.3-0.6,0.3c-0.3,0-0.3,0.3-0.6,0.3c-0.6,0,0,1.5-1.8,1.2c-6.7-1.2-13.2-0.9-19.3,0.6
	c-10.7,2.8-22.7,9.5-30.9,18.1c-4.3,4.3-8,9.2-10.1,14.4c-2.1,5.2-3.1,10.7-2.1,16.2c1.2,8.3,6.7,14.7,14.1,19.6
	c7.3,4.9,16.2,7.7,24.2,8.6c4.9,0.3,10.1,0,15.9-1.2c5.5-1.2,10.4-3.1,14.7-5.5c4.3-2.4,8.6-5.5,12.2-9.8c2.1-2.4,3.7-4,4-5.2
	c0.6-0.9,0.9-1.8,0.6-2.8c0-0.3-0.3-0.6-0.3-0.9c-0.3-0.3-0.3-0.6-0.6-0.6C149.9,363.6,148.7,363,147.1,362.1L147.1,362.1z"/>
<path class="st5" d="M156.9,369.2c9.5-1.8,19.3-3.7,29.1-5.5c-0.3-1.2-0.3-2.1-0.6-3.4c0-0.6-0.3-1.2-0.9-1.5
	c-0.3-0.3-1.2-0.6-1.8-0.6s-1.2-0.3-1.5-0.3c-0.9-0.3-1.8-0.3-2.1-0.9c-0.3-0.3-0.6-0.9-0.9-2.1c-1.2-7-2.4-14.4-3.7-21.4
	c11.3-2.4,22.7-4.6,34-7c1.2,7.3,2.4,14.7,3.7,21.7c0.3,1.2,0.3,1.8,0,2.4c-0.3,0.6-0.9,0.9-1.5,1.5c-0.6,0.3-1.2,0.6-1.5,0.9
	c-0.6,0.3-1.2,0.9-1.5,1.2c-0.3,0.6-0.3,1.2-0.3,1.8c0.3,1.2,0.3,2.1,0.6,3.4c9.5-1.8,19.3-3.7,28.8-5.8c-0.3-1.2-0.3-2.1-0.6-3.4
	c0-0.6-0.3-1.2-0.9-1.8c-0.6-0.3-1.2-0.6-1.8-0.6c-0.6,0-1.2-0.3-1.5-0.3c-0.9,0-1.8-0.3-2.1-0.9c-0.3-0.3-0.6-1.2-0.9-2.1
	c-1.5-8.3-2.8-16.5-4.3-24.8c-1.2-8.3-2.1-15.6-3.7-23.9c-0.3-0.9,0-1.8,0-2.4c0.3-0.6,0.9-0.9,1.8-1.5c0.6-0.3,0.9-0.6,1.5-0.9
	c0.6-0.3,1.2-0.9,1.5-1.5c0.3-0.6,0.3-1.2,0.3-1.8c-0.3-0.6-0.3-1.8-0.6-3.1c-9.5,2.1-19.6,3.4-29.1,5.5c0.3,1.2,0.3,2.1,0.6,3.4
	c0,0.6,0.3,1.2,0.9,1.5c0.3,0.3,1.2,0.6,1.8,0.6c0.6,0,1.2,0,1.5,0.3c0.9,0,1.5,0.3,2.1,0.6c0.3,0.3,0.6,1.2,0.9,2.1
	c1.2,6.7,2.1,13.2,3.4,19.9c-11.3,2.4-22.7,4.9-34,7.3c-1.2-6.4-2.1-13.2-3.4-19.6c-0.3-0.9,0-1.8,0.3-2.4c0.3-0.6,0.9-0.9,1.8-1.5
	c0.3-0.3,0.9-0.6,1.5-0.9c0.6-0.3,1.2-0.9,1.5-1.5s0.3-1.2,0.3-1.8c-0.3-1.2-0.3-2.1-0.6-3.4c-9.8,2.1-19.3,4.3-29.1,6.4
	c0.3,1.2,0.3,2.1,0.6,3.4c0,0.6,0.3,1.2,0.9,1.5c0.3,0.3,0.9,0.6,1.8,0.6c0.6,0,1.2,0,1.8,0.3c0.9,0,1.5,0.3,2.1,0.6
	c0.3,0.3,0.6,0.9,0.9,2.1c1.2,8,2.8,15.9,4,24.2c1.2,8,2.8,16.2,4,24.2c0.3,0.9,0.3,1.8,0,2.4c-0.3,0.6-0.9,0.9-1.5,1.5
	c-0.6,0.3-1.2,0.6-1.5,0.9c-0.6,0.3-1.2,0.9-1.5,1.2c-0.3,0.6-0.3,1.2-0.3,1.8C156.6,367,156.6,367.9,156.9,369.2L156.9,369.2z"/>
<path class="st5" d="M444.1,359.4c20.8,4,41.3,8.3,62.1,12.2c1.2-5.5,2.1-11.3,3.4-16.8c-1.2-0.3-2.4-0.6-3.7-0.6
	c-1.8-0.3-3.4,0.6-4.9,2.4c-0.6,0.6-0.9,0.9-1.2,1.2c-1.2,1.5-2.8,2.4-4.6,3.1c-1.8,0.6-4,0.6-6.1,0.3c-7-1.5-14.4-2.8-21.4-4.3
	c1.5-7.7,3.1-15.3,4.3-23c2.4,0.6,4.9,0.9,7.3,1.5c1.2,0.3,2.4,0.6,3.1,0.9c0.9,0.3,1.5,0.9,1.8,1.5c0.3,0.6,0.9,1.5,1.2,2.1
	c0,0,0,0,0.3,0.3c0.9,1.5,1.8,2.1,3.1,2.4c1.2,0.3,2.4,0.6,3.7,0.6c1.2-5.8,2.4-11.9,3.4-17.8c-1.2-0.3-2.4-0.6-3.7-0.6
	c-0.9-0.3-2.1,0.3-3.4,1.2c-0.3,0-0.3,0.3-0.6,0.3c-0.6,0.3-1.2,0.9-1.8,1.2c-0.6,0.3-1.5,0.6-2.4,0.6c-0.9,0-2.1,0-3.4-0.3
	c-2.4-0.6-4.9-0.9-7.3-1.5c1.2-7.3,2.8-14.4,4.3-21.7c4.9,1.2,10.1,2.1,15.3,3.1c3.4,0.6,5.8,1.5,7.3,2.8c1.5,1.2,2.8,3.1,3.4,5.5
	c0.3,1.2,0.9,1.8,1.5,2.4c0.6,0.3,1.5,0.6,2.8,0.9c0.9,0.3,1.8,0.3,3.1,0.6c0.9-5.2,2.1-10.7,3.1-15.9c-2.8-0.3-4.9-0.6-7-0.9
	c-2.1-0.3-4-0.6-5.2-0.9c-15-3.1-30.3-6.4-45-9.8c-0.3,1.2-0.3,2.1-0.6,3.4c0,0.6,0,1.2,0.3,1.8c0.3,0.6,0.9,0.9,1.5,1.2
	c0.6,0.3,0.9,0.6,1.5,0.9c0.9,0.6,1.5,0.9,1.5,1.5c0.3,0.6,0.3,1.2,0,2.4c-1.5,8-3.1,15.6-4.6,23.6c-1.5,8-3.1,15.6-4.6,23.6
	c-0.3,0.9-0.6,1.8-0.9,2.1s-1.2,0.6-2.1,0.6c-0.6,0-1.2,0-1.8,0.3c-0.9,0-1.5,0.3-1.8,0.6c-0.3,0.3-0.6,0.9-0.9,1.5
	C444.7,356.9,444.4,358.1,444.1,359.4L444.1,359.4z"/>
<path class="st5" d="M434,339.2c-4.9,2.8-9.5,4.9-13.5,5.8c-4,1.2-8.3,1.2-12.2,0.9c-7-0.9-12.6-4.3-16.5-9.8
	c-4-5.5-5.2-12.2-4.3-20.5c0.9-8.6,4-15,8.9-19.6c4.9-4.6,10.7-6.4,17.4-5.2c3.7,0.6,6.7,1.8,9.5,4c2.8,2.1,5.2,4.9,7,8.6
	c0,0.3,0.3,0.6,0.6,1.2c0.9,2.1,2.4,3.4,4,3.4c1.2,0.3,2.4,0.3,3.7,0.6c0.6-5.8,1.5-11.9,2.1-17.8c-0.9,0-1.8-0.3-3.1-0.3
	c-0.6,0-1.5,0-3.1,0l0,0c-0.6,0-0.9,0-1.5,0.3c-0.3,0-0.3,0-0.6,0c-0.3,0-0.3,0-0.6,0c-0.3,0-1.5-0.6-3.1-1.5
	c-5.5-3.4-11-5.8-16.8-6.7c-5.2-0.9-10.1-0.6-15.3,0.6c-4.9,1.2-9.5,3.4-13.8,6.4c-4,3.1-7,6.7-9.5,10.7c-2.4,4.3-4,8.6-4.6,13.5
	c-0.6,5.2,0,10.4,1.5,15c1.5,4.9,4.3,9.2,8.3,13.5c3.1,3.1,6.7,5.8,11,8c4.3,1.8,8.9,3.4,14.1,4s9.8,0.6,14.4,0
	c4.3-0.6,8.6-2.1,13.2-4.6c2.4-1.2,4-2.4,4.9-3.1c0.6-0.6,1.2-1.5,1.2-2.1c0-0.3,0-0.6,0-0.9s-0.3-0.6-0.3-0.6
	C436.1,341.6,435.2,340.4,434,339.2L434,339.2z"/>
<path class="st5" d="M327.1,352.3c11,0,22,0,33.1,0c0-1.2,0-2.4,0-3.4c0-0.6-0.3-1.2-0.6-1.8s-1.2-0.9-1.8-1.2s-1.2-0.3-1.8-0.6
	c-1.2-0.3-1.8-0.9-2.1-1.2c-0.3-0.6-0.6-1.2-0.6-2.1c0-8.6,0-16.8,0-25.4c0-8.6,0-16.8,0-25.4c0-0.9,0.3-1.8,0.6-2.4
	c0.3-0.3,1.2-0.9,2.1-1.2c0.6-0.3,1.2-0.3,1.8-0.6c0.9-0.3,1.5-0.6,1.8-0.9s0.6-0.9,0.6-1.8c0-1.2,0-2.4,0-3.4
	c-11-0.3-22-0.6-32.8-0.9c0,1.2,0,2.4,0,3.7c0,0.6,0.3,1.2,0.6,1.8s0.9,0.9,1.8,1.2c0.6,0.3,1.2,0.3,1.8,0.6
	c0.9,0.3,1.8,0.6,2.1,1.2c0.3,0.6,0.6,1.2,0.6,2.4c0,8.6,0,17.1,0,25.4c0,8.6,0,16.8,0,25.4c0,0.9-0.3,1.8-0.6,2.1
	c-0.3,0.3-1.2,0.9-2.1,1.2c-0.6,0.3-1.2,0.3-1.8,0.6c-0.9,0.3-1.5,0.6-1.8,0.9c-0.3,0.6-0.6,1.2-0.6,1.8
	C327.1,350.2,327.1,351.4,327.1,352.3z"/>
<path class="st1" d="M152.4,426.7c1.2-4.3,2.4-8.6,4-13.2c1.2-4.3,2.4-8.9,4-13.2c0-0.3,0.3-0.6,0.6-0.9c0.3-0.3,0.6-0.3,1.2-0.6
	c1.5-0.3,3.4-0.3,4.9-0.6h0.3c0.3,0,0.6,0,0.9,0.3c0.3,0,0.3,0.3,0.3,0.6v0.3v0.3c-0.9,3.1-1.8,6.1-2.8,8.9
	c-0.9,3.1-1.8,5.8-2.8,8.9c4.6-7,8.6-11.9,11.9-14.7c3.4-2.8,6.7-4.3,10.1-4c1.8,0,3.7,0.6,4.9,1.2c1.2,0.9,1.8,1.8,2.1,3.4
	c0,0.9,0,2.8-0.6,5.2c-0.6,2.4-1.2,6.1-2.8,10.7c4.6-6.7,8.9-11.6,12.6-14.7c3.7-3.1,7.3-4.6,10.4-4.6c1.8,0,3.7,0.6,4.9,1.8
	c1.2,0.9,2.1,2.4,2.1,4c0.3,1.5-0.3,4.3-1.5,8.3c-0.9,2.4-1.5,4.6-1.8,6.1c-0.3,1.5-0.9,3.1-0.9,4.3c-0.3,1.2-0.3,2.1,0,2.4
	c0,0.9,0.3,1.2,0.9,1.8c0.6,0.3,1.2,0.6,2.1,0.6c1.8,0.3,4.6-0.9,7.7-4c1.5-1.2,3.7-3.4,6.1-6.4c0.3-0.6,0.9-0.9,1.2-1.5
	c0.3-0.6,0.6-1.5,0.9-2.1c1.5-3.1,4.3-5.8,7.7-8.6c2.4-1.8,5.2-3.1,8.3-4c3.1-0.9,6.1-1.2,9.5-0.9c1.8,0,3.7,0.3,5.5,0.9
	c1.8,0.3,3.7,0.9,5.5,1.8c0.3,0.3,0.3,0.6,0.6,0.9c0,0,0,0,0,0.3c0,0.9-0.3,2.4-0.6,4.9c-0.3,1.2-0.6,2.4-0.6,3.1
	c-0.9,5.2-1.8,10.4-2.4,15.6v0.3c0,1.5-0.3,2.4,0,3.4c0,0.6,0.3,0.9,0.9,1.5c0.6,0.3,1.2,0.6,1.5,0.6c2.1,0.3,4.6-1.5,8-4.9
	c1.5-1.8,3.7-4.3,5.8-7.3c2.1-2.8,4.3-6.4,7-10.4c-0.6-0.6-0.9-1.2-0.9-2.1c-0.3-2.1,0-4,1.5-5.5c1.2-1.5,3.1-2.4,4.9-2.8l0.3,0.3
	c-0.3,0.9-0.6,1.5-0.9,2.1s-0.3,0.9-0.3,1.2c0.3,0.9,0.6,1.5,1.2,2.1c0.6,0.3,1.5,0.6,2.8,0.6s3.1-0.3,5.2-0.6
	c2.1-0.6,5.2-1.5,9.2-2.8c0.3,0,0.3,0.3,0.6,0.3c-2.1,5.5-3.7,10.1-4.9,13.8c-1.2,3.7-1.8,6.4-2.1,8c-0.9,3.4-1.2,5.8-0.9,7
	c0.3,0.9,0.6,1.5,1.5,2.1c0.6,0.6,1.5,0.9,2.4,0.9c2.1,0,4.6-1.5,7.7-4.9c1.5-1.5,3.4-4.3,5.8-8c2.1-3.7,5.2-8,8.3-13.8
	c0.3-2.1,0.6-4,0.9-6.1c0.9-5.2,1.8-9.8,2.8-14.1c0.9-4.3,2.1-8.3,3.7-11.9c3.1-7,6.7-11.6,10.7-13.8c0.3,0,0.3,0,0.6,0
	c0.9,0.6,1.8,1.5,2.4,2.8c0.6,1.2,0.9,2.8,1.5,4.6c0.9,5.2,0.3,10.7-2.1,17.4c-1.2,3.4-3.1,6.7-5.2,10.1c-2.1,3.4-4.9,6.7-7.7,10.4
	c-0.6,5.8-0.9,11.3-1.2,17.1c3.7-8,7.3-14.1,11.3-18.4c4.3-4.3,8.3-6.4,12.2-6.7c2.1,0,4.3,0.3,5.8,1.2c1.5,0.9,2.4,2.4,2.8,4.3
	c0.6,2.4-0.6,4.9-3.1,7.7c-2.8,2.8-6.7,5.5-12.2,8.6c2.4,4,4.6,6.7,6.4,8.3c1.8,1.5,4,2.4,5.8,2.1c2.1-0.3,5.2-2.4,8.3-6.7
	c1.5-2.1,3.4-4.9,5.2-8.3c0.6-1.2,1.5-2.4,2.1-3.7c0.6-2.8,2.1-5.2,4-8c1.8-2.4,4.3-4.6,7.3-6.1c2.8-1.5,5.5-2.4,8.6-2.4
	c2.8-0.3,5.5,0.3,7.3,1.2c2.1,0.9,3.4,2.4,3.7,4.3c0.6,3.1-1.2,6.1-5.2,9.8c-4,3.7-9.8,7-17.4,10.1c0.6,2.8,1.8,4.6,4,5.8
	c1.8,1.2,4.3,1.5,7,1.2c5.2-0.9,10.1-3.7,15.3-8.9c2.4-2.4,4.9-5.5,6.7-8.6c1.8-2.8,3.7-5.5,5.2-8.6c0.3-1.2,0.6-2.4,0.9-4
	c-2.1,0.3-4.6,0.3-6.7,0.6c0-0.3-0.3-0.3-0.3-0.6c0-0.3,0.3-0.9,0.3-1.2c0.3,0,0.3-0.3,0.6-0.6c2.1-0.3,4.6-0.3,7-0.6
	c0.9-4,1.8-7.7,2.4-11.3c0-0.6,0.3-1.2,0.6-1.5c0.3-0.3,0.6-0.6,1.2-0.6c1.2-0.3,2.8-0.6,4-0.9c0,0,0.3,0,0.6,0c0.3,0,0.6,0,0.6,0
	c0.3,0,0.3,0.3,0.3,0.3c0,0.3,0,0.3,0,0.3v0.3c-0.6,4.3-1.5,8.3-2.4,12.6c2.1,0,4.3-0.3,6.4-0.3c0,0,0,0.3,0.3,0.3
	c0,0.6,0,0.9,0,1.5c-0.3,0-0.3,0.3-0.6,0.3c-2.1,0.3-4.3,0.3-6.4,0.6c-0.6,3.1-1.2,6.1-1.5,9.2s-0.6,6.1-0.9,9.2
	c0,0.9-0.3,1.5,0,2.1c0,0.6,0.3,1.2,0.3,1.8c0.3,0.6,0.6,1.2,1.2,1.5c0.6,0.3,1.2,0.3,2.1,0.3c2.4-0.3,5.5-2.8,8.9-6.7
	c1.5-2.1,3.4-4.6,5.5-7.3c1.8-2.4,3.7-5.2,5.8-8.6c0-1.5,1.2-3.1,3.7-4.3c2.1-1.2,3.7-0.9,3.4,1.5c0,0.3,0,0.6,0,0.9
	c0.3,1.5,2.8,3.1,7.7,4.6c1.8,0.6,3.1,1.2,4,1.5c2.4,0.9,4.3,1.8,5.8,2.8c1.5,0.9,2.1,1.8,2.8,3.1c0.3,0.9,0.3,1.5,0,2.4
	s-0.9,1.5-1.8,2.4c3.1-0.6,6.4-2.4,9.8-5.8c3.4-3.4,7-7.7,11-13.2c0.3,0,0.3,0.3,0.3,0.3c0,0.3,0.3,0.3,0.3,0.6
	c0,0.6-0.3,1.8-1.2,3.1c-0.9,1.2-1.8,3.1-3.7,4.9c-3.4,4-6.7,7-9.8,9.2c-3.4,2.1-7,3.4-11,4.3c-1.8,0.9-3.7,1.5-5.5,1.8
	c-1.8,0.6-3.7,0.9-5.2,0.9c-3.7,0.3-6.4,0.3-8.9-0.3c-2.4-0.6-3.7-1.5-4.3-2.8c-0.3-0.9,0-1.8,1.2-2.8c1.2-0.9,2.8-1.2,4.6-1.5
	c0.6,0,1.2,0,1.8,0c0.6,0,1.2,0,1.8,0v0.3c-0.6,0.3-1.2,0.9-1.5,1.5c-0.3,0.6-0.3,1.2,0,1.5c0.3,0.9,1.2,1.5,2.4,1.8
	c1.2,0.3,3.1,0.6,4.9,0.3c3.1-0.3,5.2-1.2,7-2.1c1.5-1.2,2.4-2.4,1.8-4c-0.3-0.9-1.2-1.8-2.1-2.4c-1.2-0.6-3.7-1.8-7.3-3.1
	c-4.3-1.5-7.3-2.8-8.6-3.7c-0.6-0.6-1.2-0.9-1.5-1.5c-0.6,1.2-1.8,2.8-3.1,4.9v0.3c-4,5.8-7,10.4-10.1,13.2
	c-3.1,3.1-6.4,4.6-9.2,5.2c-2.4,0.3-4.6,0.3-6.1-0.6c-1.5-0.9-2.8-2.1-3.1-4c-0.3-0.6-0.3-1.8-0.3-3.4s0-3.4,0.3-5.8
	c0-1.2,0-2.1,0.3-3.4c-0.3,0.3-0.6,0.9-0.6,1.2c-3.7,5.8-7.7,11-12.6,14.7c-4.9,4-10.1,6.4-15.6,7.3c-4.3,0.6-8,0-11-1.8
	s-4.9-4.9-6.1-8.6c-0.3-0.9-0.6-1.8-0.6-2.8c-3.1,5.5-5.8,9.5-8.3,11.9c-3.1,3.4-6.1,5.2-9.2,5.5c-1.5,0.3-3.4,0-4.6-0.9
	c-1.5-0.6-3.1-1.8-5.2-4c-1.8-1.5-3.4-3.4-4.6-5.2s-2.1-3.1-2.1-3.7c-0.3-0.9,0.6-1.5,2.4-2.4c0.3-0.3,0.6-0.3,0.9-0.3
	c4.6-2.4,8-4.6,9.5-6.4s2.1-3.7,1.8-5.5c-0.3-1.2-0.9-2.1-1.8-2.8c-0.9-0.6-2.1-0.9-3.7-0.9c-2.4,0-5.2,1.8-8.3,5.2
	c-2.8,3.4-5.5,8.3-8.6,14.7c-0.9,2.1-1.8,4-2.4,5.5c-0.6,1.8-1.2,3.7-1.8,5.8c-0.3,0.6-0.3,0.9-0.6,1.2c-0.3,0.3-0.9,0.6-1.8,0.6
	c-1.5,0.3-2.8,0.6-4.3,0.9h-0.3h-0.3c-0.3,0-0.6,0-0.9-0.3c-0.3-0.3-0.3-0.3-0.3-0.6v-0.3c0-0.3,0-0.3,0-0.6
	c0.9-5.8,1.5-11.3,1.8-17.1c0-1.5,0.3-3.1,0.3-4.6c-0.6,0.9-1.2,2.1-1.8,3.1c-0.3,0.6-0.6,1.2-0.9,1.5c-5.2,8.6-9.5,14.1-12.2,16.2
	c-2.8,2.1-5.8,3.4-8.6,3.1c-2.8,0-4.6-0.9-6.4-2.1c-1.5-1.2-2.8-3.1-3.1-5.2c-0.3-2.4,0-5.8,1.2-9.8c1.2-4.3,3.7-8.9,6.7-14.1
	c-2.1,1.2-4.3,2.1-6.1,2.8c-2.1,0.6-3.7,0.9-4.9,0.9s-2.1-0.3-2.8-0.6c-0.3,1.2-0.9,3.1-2.4,5.2c-0.3,0.3-0.3,0.6-0.6,0.6
	c-0.3,0.3-0.3,0.6-0.6,0.9c-4.6,6.4-8.6,11-12.2,14.1c-3.7,3.1-6.7,4.3-9.2,4c-2.1-0.3-3.7-0.9-4.9-1.8c-1.2-0.9-1.8-2.1-2.1-4
	c0-0.9,0-2.1,0-4c0.3-1.8,0.6-4.3,1.5-7c-3.1,5.5-5.8,9.5-8.6,11.6c-2.8,2.1-5.5,3.1-8.6,2.8c-3.4-0.3-6.1-1.5-8.3-3.7
	c-2.1-2.1-3.4-4.6-4-8c0-0.6-0.3-1.2-0.3-1.5c-3.4,5.8-6.4,8.3-8.6,9.5c-3.1,1.5-5.8,2.1-8.9,1.8c-1.8-0.3-3.7-0.9-5.2-2.1
	s-2.1-2.4-2.4-4c-0.3-2.1,0.3-5.5,1.8-10.4c0.3-0.6,0.3-0.9,0.6-1.5c0.3-1.2,0.9-2.8,1.5-4.9c0.9-2.8,1.2-4.6,1.2-5.2
	c0-0.6-0.3-0.9-0.9-1.2c-0.6-0.3-1.2-0.6-1.8-0.6c-1.8,0-4.3,1.2-7,4.3c-3.1,3.1-6.1,6.7-9.8,11.9c-1.2,1.8-2.8,4-4,6.4
	c-1.2,2.4-2.4,3.7-3.4,3.7c-1.5,0-3.1,0-4.3,0.3h-0.3c-0.3,0-0.6,0-0.9-0.3c-0.3,0-0.3-0.3-0.3-0.3c0-0.3,0-0.6,0-0.6
	c0-0.3,0-0.3,0-0.6c0.9-3.4,1.8-7,2.4-10.7c0.9-3.7,1.5-7,2.4-10.7v-0.3c0.3-1.5,0.3-2.1,0.3-2.8c0-0.6-0.3-0.9-0.6-1.2
	c-0.3-0.3-0.9-0.6-1.5-0.6c-1.8,0-4,1.2-6.7,3.7c-2.8,2.4-5.8,6.4-9.2,11.3c-1.5,2.1-3.1,4.3-4.3,7c-1.5,2.8-2.4,4-3.1,4
	c-1.8,0.3-3.7,0.3-5.2,0.6h-0.3c-0.3,0-0.6,0-0.6-0.3c0,0,0-0.3-0.3-0.6c0-0.3,0-0.6,0-0.6C152.4,427,152.4,427,152.4,426.7
	L152.4,426.7z M265,406.8c-0.6-0.6-1.5-0.9-2.8-1.2c-0.9-0.3-2.1-0.6-3.1-0.6c-1.8,0-4,0.3-5.8,1.5c-2.1,1.2-4,3.1-5.8,5.5
	c-2.4,3.4-4.3,6.1-5.2,9.2c-1.2,2.8-1.5,5.2-0.9,7.7c0.3,1.2,0.6,2.4,1.5,3.4c0.9,0.9,1.8,1.2,3.1,1.5c3.1,0.3,6.4-1.8,9.8-6.4
	c1.8-2.4,3.4-5.2,4.9-8.6C261.9,415.1,263.5,411.1,265,406.8L265,406.8z M340.3,405.9c4-4.6,6.7-8.9,8.6-13.2
	c1.5-4.3,1.8-8.3,0.9-11.9c-0.3-1.5-0.6-3.1-1.2-4.3s-1.2-2.8-1.8-4c-1.5,1.5-2.8,4.6-3.7,9.8c-0.6,2.4-0.9,5.5-1.2,8.9
	c-0.3,3.4-0.6,7.3-1.2,11.6C340.6,403.7,340.3,404.7,340.3,405.9L340.3,405.9z M391.1,423c5.5-1.8,9.8-4.3,12.6-7.7
	c2.8-3.4,4-6.7,3.4-10.1c-0.3-1.2-0.6-1.8-1.5-2.4c-0.9-0.6-1.8-0.9-3.1-0.6c-3.4,0.3-6.1,2.1-8.6,6.4
	C391.4,412.3,390.8,417.5,391.1,423z"/>
</svg>
